<svg id="Слой_1" data-name="Слой 1" xmlns="http://www.w3.org/2000/svg" viewBox="0 0 433 476"><defs><style>.cls-1{fill:#666;}.cls-2{fill:red;}</style></defs><title>sssМонтажная область 1</title><path class="cls-1" d="M264.07,368.31s160-47,153.62-179.89S244.17,13.3,234.62,12.51,131.94.57,60.3,57.88c0,0,121-74,238,3.18,114.09,75.28,78.8,187.06,74,202.18S352.42,327.71,264.07,368.31Z"/><path d="M158.6,363.93s-74.28,35.65-115.74,4.38c-13.2-9.95-22-23.05-23.55-45-4.78-67.66,67.14-158.48,140.09-218.1,35.94-29.37,72-49.84,93.93-58.9,50.14-20.7,82.78-37.41,137.7-19.9,56.28,17.94,18.31,121,15.92,125,0,0,50.14-69.24,11.14-123.37S270,10.52,226.26,35.19,106.87,110,55.13,180.06s-74.5,141.07-35.82,183.87C56.72,405.32,137.91,378.26,158.6,363.93Z"/><path class="cls-2" d="M155.42,476.16s64.47-101.09,65.27-227.65c0,0-81.19,11.94-147.25-19.1L87,209.51s58.14,36.06,136.9,23.88c40.27-6.23,83.4-26.73,132.14-67.66l3.18,6.37s-55.72,54.13-117,70.84C242.18,242.94,239,379.85,155.42,476.16Z"/><path class="cls-2" d="M222.28,120.36a35.82,35.82,0,1,0,35.82,35.82A35.82,35.82,0,0,0,222.28,120.36Zm15.13,55.72a16.72,16.72,0,1,1,16.71-16.72A16.71,16.71,0,0,1,237.41,176.08Z"/></svg>