<svg xmlns="http://www.w3.org/2000/svg" viewBox="0 0 37.28 35.98"><defs><style>.cls-1{fill:none;stroke:#000;stroke-miterlimit:10;stroke-width:3px;}</style></defs><title>labs</title><g id="Слой_2" data-name="Слой 2"><g id="labs"><path d="M37.28,28.12,25,23.2,12.79,28.12l5.67,2.28v3.94A1.64,1.64,0,0,0,20.11,36H31.06a1.64,1.64,0,0,0,1.64-1.64V30h0Z"/><path class="cls-1" d="M31.06,22.29V8.14A3.36,3.36,0,0,0,27.7,4.78H20.05a3.81,3.81,0,0,0-7.55,0H4.85A3.36,3.36,0,0,0,1.5,8.14V31a3.36,3.36,0,0,0,3.35,3.35H15"/></g></g></svg>