<svg id="Слой_1" data-name="Слой 1" xmlns="http://www.w3.org/2000/svg" viewBox="0 0 101 35"><defs><style>.cls-1{fill:#666;}.cls-2{fill:red;}.cls-3{fill:#050505;}</style></defs><title>Монтажная область 1</title><path class="cls-1" d="M89,31.87S103,25.61,100.7,13.64,85-.07,81.9,0c-1.57,0-9.45.21-15.22,6.3,0,0,10-8.22,21.6-2.7C99.57,9,97.78,19.56,97.53,21S96.54,27.08,89,31.87Z"/><path d="M6.21,15.7s-2.92.9-4.26-.47a2.13,2.13,0,0,1-.62-1.78C1.53,11,4.67,8,7.67,6.24A15.65,15.65,0,0,1,11.43,4.6c2-.48,3.23-.91,5.15,0s0,4.53-.11,4.66S18.69,7,17.56,4.84s-5.32-1.45-7.06-.79A21,21,0,0,0,3.44,8.4c-2.28,2.28-3.51,4.76-2.33,6.54S5.37,16.11,6.21,15.7Z"/><path class="cls-2" d="M14.69,35a38,38,0,0,0,5.22-18.2s-6.5.95-11.78-1.53l1.08-1.59a17.38,17.38,0,0,0,11,1.91c3.22-.5,6.67-2.14,10.57-5.41l.25.51S26.53,15,21.63,16.34C21.63,16.34,21.37,27.29,14.69,35Z"/><path class="cls-2" d="M20,6.54A2.87,2.87,0,1,0,22.9,9.4,2.86,2.86,0,0,0,20,6.54ZM21.24,11a1.34,1.34,0,1,1,1.34-1.34A1.34,1.34,0,0,1,21.24,11Z"/><path class="cls-3" d="M15.76,12.5c-.23-.14-.48-.28-.76-.42a7.35,7.35,0,0,0-.9-.37,7.69,7.69,0,0,0-1-.25,5.63,5.63,0,0,0-1.1-.1,2.88,2.88,0,0,0-1.08.17,2.09,2.09,0,0,0-.69.43,1.65,1.65,0,0,0-.37.56,1.63,1.63,0,0,0-.11.55,1.87,1.87,0,0,0,.12.68,1.81,1.81,0,0,0,.37.59,3.24,3.24,0,0,0,.66.58q.4.3,1,.66a11.75,11.75,0,0,1,1.35,1,5.66,5.66,0,0,1,1,1,3.84,3.84,0,0,1,.63,1.18,4.53,4.53,0,0,1,.21,1.43,5.24,5.24,0,0,1-.47,2.11,4.42,4.42,0,0,1-.71,1.07,4.19,4.19,0,0,1-1.14.91,6.38,6.38,0,0,1-1.64.63,9.23,9.23,0,0,1-2.23.24A10.62,10.62,0,0,1,7.49,25a12.26,12.26,0,0,1-1.29-.26c-.4-.11-.78-.23-1.13-.36s-.66-.28-.93-.42l.61-3.18a9.88,9.88,0,0,0,.9.57,7.83,7.83,0,0,0,1,.47,7.05,7.05,0,0,0,1.11.32,6.31,6.31,0,0,0,1.15.11A3.8,3.8,0,0,0,10,22.14a2,2,0,0,0,.73-.39,1.41,1.41,0,0,0,.4-.57,2,2,0,0,0,.12-.69,1.78,1.78,0,0,0-.12-.67,1.54,1.54,0,0,0-.38-.57,4,4,0,0,0-.71-.57c-.3-.2-.66-.42-1.08-.67a9.64,9.64,0,0,1-1.25-.82,5.6,5.6,0,0,1-1-1A4.22,4.22,0,0,1,6.14,15a4.6,4.6,0,0,1-.22-1.48,5.07,5.07,0,0,1,.34-1.83,4.52,4.52,0,0,1,1.09-1.6A5.48,5.48,0,0,1,9.24,8.94,7.73,7.73,0,0,1,12,8.51c.44,0,.86,0,1.27.07s.81.12,1.18.2.73.18,1.05.28.63.21.9.32Z"/><path class="cls-3" d="M35.66,21c-.07.34-.13.69-.19,1s-.11.71-.16,1.05-.08.65-.11.95-.05.55-.07.76H31.55c0-.21,0-.43.07-.66s.05-.43.08-.63.06-.38.08-.53,0-.27,0-.34h0a8.09,8.09,0,0,1-.93,1,7.34,7.34,0,0,1-1,.77,5.78,5.78,0,0,1-1.12.49,4,4,0,0,1-1.18.18,2.79,2.79,0,0,1-2.15-.79,3.12,3.12,0,0,1-.74-2.22c0-.11,0-.26,0-.45s.05-.38.08-.58.07-.4.1-.59l.1-.49,1.4-6.63H29.9l-1.38,6.48c0,.12-.05.24-.08.38s-.05.26-.07.39,0,.24,0,.35,0,.18,0,.24a1.11,1.11,0,0,0,.27.79,1,1,0,0,0,.78.3A2.08,2.08,0,0,0,30.45,22a3.67,3.67,0,0,0,.95-.82A5.51,5.51,0,0,0,32.14,20a5.73,5.73,0,0,0,.44-1.26l1.15-5.41h3.58Z"/><path class="cls-3" d="M49.3,21.06q-.07.35-.15.84c0,.33-.09.67-.13,1s-.08.7-.1,1,0,.64,0,.88H45.29c0-.1,0-.24,0-.42s0-.35,0-.54,0-.37.06-.54,0-.32,0-.42H45.4a8.2,8.2,0,0,1-.72.89,5.21,5.21,0,0,1-.8.7,3.88,3.88,0,0,1-.94.45,3.59,3.59,0,0,1-1.11.16,3.49,3.49,0,0,1-1.48-.29A3,3,0,0,1,39.23,24a3.9,3.9,0,0,1-.7-1.38,6.75,6.75,0,0,1-.24-1.88,8.26,8.26,0,0,1,.51-2.89,7.07,7.07,0,0,1,3.79-4.12,7.49,7.49,0,0,1,3.14-.63c.3,0,.6,0,.91.05s.56.06.76.1l1.15-5.38h3.53Zm-3-5.45-.6,0a3.37,3.37,0,0,0-1.36.26,3.49,3.49,0,0,0-1,.67,3.77,3.77,0,0,0-.72,1,5.91,5.91,0,0,0-.47,1.07,7.45,7.45,0,0,0-.32,1.95,3,3,0,0,0,.09.76,1.8,1.8,0,0,0,.27.61,1.15,1.15,0,0,0,.44.41,1.48,1.48,0,0,0,.65.14,1.79,1.79,0,0,0,1.1-.36,3.45,3.45,0,0,0,.86-.95,6.55,6.55,0,0,0,.64-1.33,12.9,12.9,0,0,0,.42-1.47l.57-2.59Z"/><path class="cls-3" d="M57.38,25.85a17.73,17.73,0,0,1-1.18,1.81A7.61,7.61,0,0,1,54.87,29a5.38,5.38,0,0,1-1.59.88,5.68,5.68,0,0,1-2,.31,6.43,6.43,0,0,1-.91-.07,5,5,0,0,1-1-.24L50,27.18a1.63,1.63,0,0,0,.58.26,2.74,2.74,0,0,0,.7.09,2.5,2.5,0,0,0,1.23-.31,2.73,2.73,0,0,0,1-1l.91-1.44L52.21,13.37h3.72l.81,7c0,.26,0,.53,0,.82a5,5,0,0,1,0,.72h.05c.06-.19.15-.42.26-.7a7.59,7.59,0,0,1,.38-.84l3.5-7h3.72Z"/><path class="cls-3" d="M78.9,12.73a7.35,7.35,0,0,0-.81-.45,6.92,6.92,0,0,0-1-.38,7.89,7.89,0,0,0-1.16-.26,7.31,7.31,0,0,0-1.26-.1,6.73,6.73,0,0,0-2.52.45,5.44,5.44,0,0,0-1.92,1.28,5.59,5.59,0,0,0-1.21,2,7.49,7.49,0,0,0-.42,2.57,5.76,5.76,0,0,0,.28,1.83,3.84,3.84,0,0,0,.8,1.35,3.4,3.4,0,0,0,1.26.84,4.4,4.4,0,0,0,1.65.29,5.57,5.57,0,0,0,1-.07c.27,0,.51-.11.73-.17L75,18.63H71.74l.62-2.89h6.86L77.5,23.88a9.65,9.65,0,0,1-1.06.45,11.31,11.31,0,0,1-1.24.4,11.82,11.82,0,0,1-1.44.29,12.6,12.6,0,0,1-1.67.1A8.78,8.78,0,0,1,69,24.61a6.14,6.14,0,0,1-3.71-3.72,8.13,8.13,0,0,1-.5-2.9,11.09,11.09,0,0,1,.28-2.45,9.65,9.65,0,0,1,.84-2.25,8.67,8.67,0,0,1,1.39-1.93,8.19,8.19,0,0,1,2-1.51,10.27,10.27,0,0,1,2.51-1,12.9,12.9,0,0,1,3.08-.35,13.35,13.35,0,0,1,1.45.08c.46.06.89.13,1.3.22s.77.19,1.11.3l.91.32Z"/><path class="cls-3" d="M92.32,17.92a8.51,8.51,0,0,1-.16,1.64,8.11,8.11,0,0,1-.49,1.64,7.58,7.58,0,0,1-.87,1.51A5.29,5.29,0,0,1,89.51,24a6.19,6.19,0,0,1-1.75.85,7.42,7.42,0,0,1-2.25.31,6.06,6.06,0,0,1-2.23-.37,4.07,4.07,0,0,1-2.48-2.56,5.94,5.94,0,0,1-.3-1.92,8.87,8.87,0,0,1,.17-1.68,7.61,7.61,0,0,1,.52-1.66,6.72,6.72,0,0,1,.9-1.49,5.86,5.86,0,0,1,1.31-1.22,6.67,6.67,0,0,1,1.74-.83,7.55,7.55,0,0,1,2.2-.3,6.34,6.34,0,0,1,2.13.34,4.32,4.32,0,0,1,1.55,1,4.09,4.09,0,0,1,1,1.52A5.73,5.73,0,0,1,92.32,17.92Zm-3.58,0a3,3,0,0,0-.11-.87,1.85,1.85,0,0,0-.33-.69,1.41,1.41,0,0,0-.53-.44A1.54,1.54,0,0,0,87,15.8a2.09,2.09,0,0,0-1.26.41,3.34,3.34,0,0,0-.93,1,5.24,5.24,0,0,0-.59,1.43,6.66,6.66,0,0,0-.2,1.59,2.35,2.35,0,0,0,.48,1.58,1.53,1.53,0,0,0,1.24.56A2.18,2.18,0,0,0,87.06,22,3.27,3.27,0,0,0,88,21a5,5,0,0,0,.56-1.43A6.73,6.73,0,0,0,88.74,18Z"/></svg>